<svg id="Capa_1" enable-background="new 0 0 511.995 511.995" height="512" viewBox="0 0 511.995 511.995" width="512" xmlns="http://www.w3.org/2000/svg" xmlns:xlink="http://www.w3.org/1999/xlink"><linearGradient id="SVGID_1_" gradientUnits="userSpaceOnUse" x1="255.997" x2="255.997" y1="511.995" y2="0"><stop offset="0" stop-color="#fd3a84"/><stop offset="1" stop-color="#ffa68d"/></linearGradient><g><g><g><path d="m358.507 368.709c-3.516-5.303-9.99-7.793-16.143-6.255l-41.367 10.327v-357.781c0-8.291-6.709-15-15-15h-60c-8.291 0-15 6.709-15 15v357.781l-41.367-10.327c-6.123-1.538-12.598.952-16.143 6.255-3.486 5.288-3.311 12.217.498 17.285l90 120c6.02 8.006 18.011 7.996 24.023 0l90-120c3.81-5.068 3.985-11.997.499-17.285z" fill="url(#SVGID_1_)"/></g></g></g></svg>